<svg width="761" height="173" viewBox="0 0 761 173" fill="none" xmlns="http://www.w3.org/2000/svg">
<path d="M129.284 93.8981V35.7961V21.8394C129.284 21.3758 128.908 21 128.445 21H42.162C41.1031 21 40.5736 21 40.1258 21.01C18.7362 21.4891 1.51059 38.7147 1.03151 60.1043C1.02148 60.5521 1.02148 61.0816 1.02148 62.1405V94.5442C1.02148 99.3694 4.93306 103.281 9.75823 103.281C12.7812 103.281 15.5893 101.718 17.1827 99.1494L17.3062 98.9504L54.7105 40.0534C56.8224 36.728 60.4882 34.7135 64.4276 34.7135C68.334 34.7135 71.9738 36.6946 74.0945 39.9752L110.484 96.2642C112.366 99.1765 115.597 100.935 119.065 100.935H122.247C126.134 100.935 129.284 97.7846 129.284 93.8981Z" fill="url(#paint0_linear_122_3)"/>
<path d="M17.5831 109.593L1.61102 135.494C0.557766 137.202 0 139.169 0 141.175C0 147.154 4.84638 152 10.8247 152H82.8013C106.588 152 120.913 125.641 107.975 105.682L96.7951 88.4351C95.794 86.8908 94.0789 85.9586 92.2385 85.9586C89.9745 85.9586 87.9481 87.3633 87.1536 89.4833L84.8204 95.7095C84.0899 97.6588 82.2266 98.9504 80.1448 98.9504C78.3418 98.9504 76.6789 97.9783 75.7942 96.4073L67.7107 82.053C66.4329 79.784 64.0311 78.3801 61.4271 78.3801C58.3286 78.3801 55.5765 80.3594 54.5905 83.2967L41.801 121.397C41.2004 123.187 39.5238 124.393 37.6362 124.393C36.0601 124.393 34.6048 123.548 33.8225 122.18L26.7114 109.744C25.7659 108.091 24.0071 107.07 22.1023 107.07C20.2603 107.07 18.5499 108.025 17.5831 109.593Z" fill="url(#paint1_linear_122_3)"/>
<path d="M168.387 51.9766C165.457 51.9766 163.992 50.707 163.992 48.168V40.7852C163.992 38.2461 165.457 36.9766 168.387 36.9766H228.621C231.551 36.9766 233.016 38.2461 233.016 40.7852V48.168C233.016 50.707 231.551 51.9766 228.621 51.9766H207.059V117.777C207.059 119.926 206.082 121 204.129 121H192.879C190.926 121 189.949 119.926 189.949 117.777V51.9766H168.387ZM227.859 121C225.516 121 224.344 119.828 224.344 117.484V62.9922C224.344 60.6484 225.516 59.4766 227.859 59.4766H237.117C239.461 59.4766 240.633 60.6484 240.633 62.9922V67.7969H240.867C241.883 65.2969 243.582 63.0898 245.965 61.1758C248.348 59.2617 251.16 58.3047 254.402 58.3047C256.629 58.3047 258.465 58.5781 259.91 59.125C261.277 59.6328 261.805 60.5703 261.492 61.9375L259.852 68.9102C259.5 70.4727 258.445 70.9414 256.688 70.3164C255.672 69.9648 254.695 69.7891 253.758 69.7891C250.008 69.7891 246.902 72.0352 244.441 76.5273C241.98 81.0195 240.75 87.5625 240.75 96.1562V117.484C240.75 119.828 239.578 121 237.234 121H227.859ZM267.117 90.2383C267.117 80.3555 269.578 72.5625 274.5 66.8594C279.461 61.1562 286.453 58.3047 295.477 58.3047C305.945 58.3047 313.719 61 318.797 66.3906C323.875 71.7812 326.414 80.4531 326.414 92.4062C326.414 94.75 325.32 95.9219 323.133 95.9219H284.461C285.086 102.406 286.688 106.488 289.266 108.168C291.844 109.848 294.832 110.688 298.23 110.688C301.473 110.688 303.953 110.258 305.672 109.398C307.391 108.539 308.836 107.367 310.008 105.883C311.336 104.164 312.977 103.891 314.93 105.062L320.789 108.637C323.094 110.043 323.426 111.723 321.785 113.676C319.402 116.527 316.609 118.656 313.406 120.062C310.203 121.469 305.145 122.172 298.23 122.172C287.02 122.172 279.031 119.32 274.266 113.617C269.5 107.914 267.117 100.121 267.117 90.2383ZM284.52 84.2031H310.008C310.008 79.9844 308.953 76.5469 306.844 73.8906C304.734 71.1953 301.375 69.8477 296.766 69.8477C293.094 69.8477 290.184 71.1367 288.035 73.7148C285.887 76.2539 284.715 79.75 284.52 84.2031ZM342.703 121C340.359 121 339.188 119.828 339.188 117.484V38.0312C339.188 35.6875 340.359 34.5156 342.703 34.5156H352.078C354.422 34.5156 355.594 35.6875 355.594 38.0312V81.0977C355.594 82.6602 355.516 84.2227 355.359 85.7852H355.594L374.168 61.8789C375.418 60.2773 376.941 59.4766 378.738 59.4766H388.348C391.941 59.4766 392.547 60.9219 390.164 63.8125L372.469 85.1992L392.977 116.664C394.852 119.555 394.246 121 391.16 121H381.141C379.188 121 377.586 119.984 376.336 117.953L363.035 96.5664L355.594 105.531V117.484C355.594 119.828 354.422 121 352.078 121H342.703ZM451.102 121C448.367 121 447 119.535 447 116.605V41.3711C447 38.4414 448.367 36.9766 451.102 36.9766H459.773C463.133 36.9766 465.672 38.3437 467.391 41.0781L497.273 89.0664H497.684C497.488 86.7227 497.391 84.3789 497.391 82.0352V41.3711C497.391 38.4414 498.758 36.9766 501.492 36.9766H510.398C513.133 36.9766 514.5 38.4414 514.5 41.3711V116.605C514.5 119.535 513.133 121 510.398 121H502.312C498.953 121 496.414 119.633 494.695 116.898L464.227 68.0312H463.816C464.012 70.375 464.109 72.7188 464.109 75.0625V116.605C464.109 119.535 462.742 121 460.008 121H451.102ZM528.562 90.2383C528.562 80.3555 531.023 72.5625 535.945 66.8594C540.906 61.1562 547.898 58.3047 556.922 58.3047C567.391 58.3047 575.164 61 580.242 66.3906C585.32 71.7812 587.859 80.4531 587.859 92.4062C587.859 94.75 586.766 95.9219 584.578 95.9219H545.906C546.531 102.406 548.133 106.488 550.711 108.168C553.289 109.848 556.277 110.688 559.676 110.688C562.918 110.688 565.398 110.258 567.117 109.398C568.836 108.539 570.281 107.367 571.453 105.883C572.781 104.164 574.422 103.891 576.375 105.062L582.234 108.637C584.539 110.043 584.871 111.723 583.23 113.676C580.848 116.527 578.055 118.656 574.852 120.062C571.648 121.469 566.59 122.172 559.676 122.172C548.465 122.172 540.477 119.32 535.711 113.617C530.945 107.914 528.562 100.121 528.562 90.2383ZM545.965 84.2031H571.453C571.453 79.9844 570.398 76.5469 568.289 73.8906C566.18 71.1953 562.82 69.8477 558.211 69.8477C554.539 69.8477 551.629 71.1367 549.48 73.7148C547.332 76.2539 546.16 79.75 545.965 84.2031ZM604.148 144.438C601.805 144.438 600.633 143.266 600.633 140.922V62.9922C600.633 60.6484 601.805 59.4766 604.148 59.4766H613.406C615.359 59.4766 616.414 60.6484 616.57 62.9922L616.805 66.3906H617.039C619.07 63.0312 621.336 60.8437 623.836 59.8281C626.336 58.8125 629.344 58.3047 632.859 58.3047C642.039 58.3047 648.484 61.4883 652.195 67.8555C655.945 74.1836 657.82 81.6445 657.82 90.2383C657.82 98.832 655.945 106.312 652.195 112.68C648.484 119.008 642.039 122.172 632.859 122.172C629.344 122.172 626.336 121.664 623.836 120.648C621.336 119.633 619.07 117.445 617.039 114.086H616.805C616.961 115.648 617.039 117.211 617.039 118.773V140.922C617.039 143.266 615.867 144.438 613.523 144.438H604.148ZM617.039 92.875C617.039 98.1484 618.074 102.445 620.145 105.766C622.254 109.047 624.773 110.688 627.703 110.688C632.977 110.688 636.414 108.852 638.016 105.18C639.656 101.469 640.477 96.4883 640.477 90.2383C640.477 83.9883 639.656 79.0273 638.016 75.3555C636.414 71.6445 632.977 69.7891 627.703 69.7891C624.773 69.7891 622.254 71.4492 620.145 74.7695C618.074 78.0508 617.039 82.3281 617.039 87.6016V92.875ZM667.195 104.594C667.195 96.7812 670.926 91.1172 678.387 87.6016C685.848 84.0859 694.363 82.2109 703.934 81.9766V79.6328C703.934 76.0391 703.035 73.5 701.238 72.0156C699.441 70.5312 696.941 69.7891 693.738 69.7891C691.473 69.7891 689.461 70.1211 687.703 70.7852C685.984 71.4102 684.48 72.1523 683.191 73.0117C681.941 73.832 680.809 74.6719 679.793 75.5312C677.996 77.0938 676.512 77.1719 675.34 75.7656L670.477 69.7891C669.266 68.3047 669.559 66.7812 671.355 65.2188C672.723 64.0078 674.305 62.9531 676.102 62.0547C677.938 61.1562 680.359 60.3164 683.367 59.5352C686.375 58.7148 690.281 58.3047 695.086 58.3047C703.211 58.3047 709.441 60.1797 713.777 63.9297C718.152 67.6797 720.34 73.207 720.34 80.5117V117.484C720.34 119.828 719.168 121 716.824 121H707.215C705.105 121 704.051 119.828 704.051 117.484V115.727H703.934C701.629 117.953 698.855 119.594 695.613 120.648C692.41 121.664 689.461 122.172 686.766 122.172C680.359 122.172 675.496 120.609 672.176 117.484C668.855 114.32 667.195 110.023 667.195 104.594ZM684.539 104.242C684.539 105.609 684.812 106.801 685.359 107.816C685.906 108.793 686.766 109.516 687.938 109.984C689.109 110.453 690.418 110.688 691.863 110.688C693.855 110.688 695.789 110.414 697.664 109.867C699.539 109.32 701.629 108.031 703.934 106V93.2852C697.371 94.0273 692.977 94.9844 690.75 96.1562C688.523 97.3281 686.922 98.5391 685.945 99.7891C685.008 101.039 684.539 102.523 684.539 104.242ZM739.852 121C737.508 121 736.336 119.828 736.336 117.484V48.2852C736.336 46.5273 736.746 44.9258 737.566 43.4805L742.078 35.5703C742.938 34.0859 743.953 33.3438 745.125 33.3438H749.227C751.57 33.3438 752.742 34.5156 752.742 36.8594V117.484C752.742 119.828 751.57 121 749.227 121H739.852Z" fill="white"/>
<defs>
<linearGradient id="paint0_linear_122_3" x1="-59.8569" y1="-43.6942" x2="54.5009" y2="198.871" gradientUnits="userSpaceOnUse">
<stop offset="0.402892" stop-color="#B1622F"/>
<stop offset="0.666136" stop-color="#DAA079"/>
</linearGradient>
<linearGradient id="paint1_linear_122_3" x1="-65.5" y1="20.4958" x2="24.646" y2="250.424" gradientUnits="userSpaceOnUse">
<stop offset="0.402892" stop-color="#B1622F"/>
<stop offset="0.666136" stop-color="#DAA079"/>
</linearGradient>
</defs>
</svg>
